<?xml version="1.0" encoding="utf-8"?>
<!-- Generator: Adobe Illustrator 24.0.2, SVG Export Plug-In . SVG Version: 6.00 Build 0)  -->
<svg version="1.1" width="512" height="512" id="Layer_1" xmlns="http://www.w3.org/2000/svg" xmlns:xlink="http://www.w3.org/1999/xlink" x="0px" y="0px"
	 viewBox="0 0 512 512" style="enable-background:new 0 0 512 512;" xml:space="preserve">
<style type="text/css">
	.st0{fill:#FFFFFF;}
</style>
<path class="st0" d="M212.1,226.8H256c8.1,0,14.6-6.5,14.6-14.6c0-8.1-6.5-14.6-14.6-14.6h-43.9c-8.1-0.2-14.8,6.2-15,14.2
	s6.2,14.8,14.2,15C211.6,226.7,211.9,226.7,212.1,226.8L212.1,226.8z"/>
<path class="st0" d="M256,0.2C114.8,0.2,0.2,114.8,0.2,256S114.8,511.8,256,511.8S511.8,397.3,511.8,256S397.3,0.2,256,0.2z
	 M372.9,297.4c0,41.7-34,75.5-75.9,75.5h-81.9c-42,0-76.1-33.8-76.1-75.5v-82.9c0-41.7,34.1-75.5,76.1-75.5h38.3
	c42,0,75.6,31.4,75.6,73.1c0.8,8.1,7.5,14.4,15.6,14.6h13.1c8.4,0,15.1,8.8,15.1,17.1V297.4z"/>
<path class="st0" d="M299.9,285.2h-87.7c-8.1,0.2-14.4,6.9-14.2,15c0.2,7.8,6.5,14,14.2,14.2h87.7c8.1-0.2,14.4-6.9,14.2-15
	C313.9,291.7,307.6,285.4,299.9,285.2L299.9,285.2z"/>
</svg>
